# Alias OBJ Model File
# Exported from SketchUp, (c) 2000-2012 Trimble Navigation Limited
# File units = millimeters

mtllib câmera.mtl

g Mesh1 Group1 Model

usemtl azul
v 7653.62 7307.83 -8116.85
vt -493.243 153.092
vn 0.419611 -0.804894 0.419611
v 4341.81 7313.77 -4793.66
vt -308.532 152.698
v 4311.32 7307.83 -4774.55
vt -307.151 153.092
f 1/1/1 2/2/1 3/3/1

v 7634.51 7313.77 -8086.36
vt -491.862 152.698
f 2/2/1 1/1/1 4/4/1

v 7076.72 7908.48 -6387.79
vt -429.047 113.242
f 5/5/1 4/4/1 1/1/1

v 7068.15 7903.44 -6388.9
vt -428.84 113.577
f 5/5/1 6/6/1 4/4/1

v 6938.44 8052.45 -5973.36
vt -413.661 103.691
f 7/7/1 6/6/1 5/5/1

v 6929.88 8047.41 -5974.47
vt -413.453 104.025
f 7/7/1 8/8/1 6/6/1

v 6810.75 8171.44 -5617.42
vt -400.197 95.7966
f 7/7/1 9/9/1 8/8/1

v 6817.45 8178.42 -5610.72
vt -400.197 95.3332
f 10/10/1 9/9/1 7/7/1

f 10/10/1 2/2/1 9/9/1

f 2/2/1 10/10/1 3/3/1

vt 180.219 275.984
vn 0.110623 0.504177 0.856486
vt 289.734 275.984
v 6813.25 8186.47 -5614.92
vt 289.734 276.378
v 4307.12 7315.88 -4778.75
vt 180.219 276.378
f 3/11/2 10/12/2 11/13/2 12/14/2 

vt 390.292 275.984
vn 0.856486 0.504177 0.110623
vt 406.139 275.984
v 6934.25 8060.5 -5977.56
vt 406.139 276.378
vt 390.292 276.378
f 10/15/3 7/16/3 13/17/3 11/18/3 

vt 424.249 275.984
v 7072.52 7916.53 -6391.99
vt 424.249 276.378
f 7/16/3 5/19/3 14/20/3 13/17/3 

vt 499.807 275.984
v 7649.42 7315.88 -8121.05
vt 499.807 276.378
f 5/19/3 1/21/3 15/22/3 14/20/3 

vt -493.243 275.984
vn -0.569146 -0.593419 -0.569146
vt -307.151 275.984
vt -307.151 276.378
vt -493.243 276.378
f 1/23/4 3/24/4 12/25/4 15/26/4 

v 4337.61 7321.82 -4797.86
vt 308.532 152.698
vn -0.419611 0.804894 -0.419611
vt 493.243 153.092
vt 307.151 153.092
f 16/27/5 15/28/5 12/29/5

v 7630.32 7321.82 -8090.56
vt 491.862 152.698
f 15/28/5 16/27/5 17/30/5

vt 308.532 275.984
vn 0.569146 0.593419 0.569146
vt 491.862 275.984
vt 491.862 276.378
vt 308.532 276.378
f 2/31/6 4/32/6 17/33/6 16/34/6 

vt -498.427 275.984
vn -0.856486 -0.504177 -0.110623
vt -424.249 275.984
v 7063.96 7911.49 -6393.1
vt -424.249 276.378
vt -498.427 276.378
f 4/35/7 6/36/7 18/37/7 17/38/7 

vt -406.139 275.984
v 6925.68 8055.46 -5978.66
vt -406.139 276.378
f 6/36/7 8/39/7 19/40/7 18/37/7 

vt -390.537 275.984
v 6806.55 8179.49 -5621.62
vt -390.537 276.378
f 8/39/7 9/41/7 20/42/7 19/40/7 

vt -289.489 275.984
vn -0.110623 -0.504177 -0.856486
vt -181.599 275.984
vt -181.599 276.378
vt -289.489 276.378
f 9/43/8 2/44/8 16/45/8 20/46/8 

vt 400.197 95.3332
vt 400.197 95.7966
f 16/27/5 11/47/5 20/48/5

f 11/47/5 16/27/5 12/29/5

vt 413.453 104.025
f 20/48/5 11/47/5 19/49/5

vt 413.661 103.691
f 19/49/5 11/47/5 13/50/5

vt 428.84 113.577
f 19/49/5 13/50/5 18/51/5

vt 429.047 113.242
f 18/51/5 13/50/5 14/52/5

f 18/51/5 14/52/5 17/30/5

f 17/30/5 14/52/5 15/28/5

g Mesh2 Group2 Model

usemtl Amarelo
v 2992.1 2974.99 4939.41
vt -4.54747e-13 -1.13687e-13
v 2993.48 2969.06 4926.65
vt 0.393701 0.393701
v -599.21 -769.481 1348.1
vt -2.27374e-13 248.425
f 21/53/5 22/54/5 23/55/5

v 7279.47 2974.99 652.038
vt 238.711 -1.13687e-13
f 22/54/5 21/53/5 24/56/5

vt 4.54747e-13 -3.71187e-14
vn -0.400953 -0.823695 -0.400953
v 7873.44 2974.99 58.0683
vt -271.782 2.80436e-16
vt -238.711 -3.2664e-13
f 21/57/9 25/58/9 24/59/9

v 3003.98 2980.66 4915.88
vt -0.985568 0.393701
f 25/58/9 21/57/9 26/60/9

v 2995.22 2985.94 4913.79
vt -0.799879 0.760386
f 26/60/9 21/57/9 27/61/9

vt -1.13687e-13 -3.38258e-13
vn 0.784724 -0.59871 -0.16048
v 2987.4 2972.91 4924.19
vt 0.494951 0.393701
vt 0.248266 1.07534
f 21/62/10 28/63/10 27/64/10

vt 248.425 4.42292e-14
f 28/63/10 21/62/10 23/65/10

v -589.6 -756.641 1347.19
vt 247.93 0.393701
f 28/63/10 23/65/10 29/66/10

v 3354.08 6309.77 -5731.8
vt 153.092 412.927
f 30/67/10 29/66/10 23/65/10

v 3356.15 6309.11 -5719.2
vt 152.779 412.534
f 29/66/10 30/67/10 31/68/10

v 3769.11 6739.68 -5306.24
vt 124.213 412.534
f 31/68/10 30/67/10 32/69/10

v 3771.57 6745.06 -5314.31
vt 124.213 412.927
f 32/69/10 30/67/10 33/70/10

v 4189.06 7180.36 -4896.82
vt -307.151 95.3332
vt -307.151 124.213
f 30/3/1 34/71/1 33/72/1

v 3366.84 6315.7 -5733.18
vt -307.545 152.698
f 34/71/1 30/3/1 35/73/1

v 5025.23 6309.77 -7402.95
vt -400.197 153.092
f 35/73/1 30/3/1 36/74/1

vt 307.151 210.875
vn 0.674958 0.298101 0.674958
v 5302.19 6309.77 -7679.91
vt 415.617 210.875
vt 400.197 210.875
f 30/75/11 37/76/11 36/77/11

v 5860.8 6309.77 -8238.52
vt 446.72 210.875
f 30/75/11 38/78/11 37/76/11

v 6696.38 6309.77 -9074.1
vt 493.243 210.875
f 30/75/11 39/79/11 38/78/11

v 3359.01 6300.22 -5732.51
vt 307.308 210.481
f 30/75/11 40/80/11 39/79/11

v -583.616 -759.936 1328.29
vt 0.985568 -80.717
f 30/75/11 41/81/11 40/80/11

vt -4.71053e-13 -81.1107
f 23/82/11 41/81/11 30/75/11

v 13756.5 -759.936 -13011.8
vt 799.408 -80.717
f 41/81/11 23/82/11 42/83/11

v 13776.3 -769.481 -13027.4
vt 800.394 -81.1107
f 43/84/11 42/83/11 23/82/11

v 8929.83 4076.52 -10321.2
vt 590.138 118.764
f 42/83/11 43/84/11 44/85/11

v 8937.19 4081.09 -10316.2
vt -182.783 -312.788
vn -0.16048 -0.59871 0.784724
vt -183.166 -312.699
vt -248.425 -595.363
f 45/86/12 44/87/12 43/88/12

v 8154.5 4863.71 -9879.18
vt -172.243 -267.138
f 46/89/12 44/87/12 45/86/12

v 8147.14 4859.14 -9884.18
vt -172.627 -267.05
f 46/89/12 47/90/12 44/87/12

v 6708.97 6309.11 -9072.02
vt -152.779 -182.829
f 48/91/12 47/90/12 46/89/12

vt -153.092 -182.436
f 48/91/12 39/92/12 47/90/12

v 7113.87 6745.06 -8656.61
vt -124.213 -182.436
f 39/92/12 48/91/12 49/93/12

v 7534.89 7170.26 -8246.1
vt -95.6463 -182.829
f 49/93/12 48/91/12 50/94/12

v 7121.93 6739.68 -8659.06
vt -124.213 -182.829
f 51/95/12 50/94/12 48/91/12

v 7531.36 7180.36 -8239.12
vt -95.3332 -182.436
f 50/94/12 52/96/12 49/93/12

v 17367.6 2974.99 -9436.07
vt 3.24679e-12 -595.363
f 52/96/12 50/94/12 53/97/12

v 17352.4 2972.91 -9440.77
vt -0.494951 -594.969
f 53/97/12 50/94/12 54/98/12

f 53/97/12 54/98/12 43/88/12

v 13775.4 -756.641 -13017.8
vt -247.93 -594.969
f 55/99/12 43/88/12 54/98/12

f 45/86/12 43/88/12 55/99/12

v 17354.8 2969.06 -9434.69
vt 800 0.393701
vt 800.394 -4.54747e-13
vt 800.394 248.425
f 56/100/5 53/101/5 43/102/5

v 7867.75 2969.06 52.3769
vt 271.782 0.393701
f 57/103/5 53/101/5 56/100/5

vt 271.782 -1.13687e-13
f 57/103/5 25/104/5 53/101/5

v 7273.78 2969.06 646.347
vt 238.711 0.393701
f 58/105/5 25/104/5 57/103/5

f 58/105/5 24/56/5 25/104/5

f 22/54/5 24/56/5 58/105/5

vt -800.394 -3.83348e-14
f 25/58/9 26/60/9 53/106/9

v 7273.65 2980.66 646.214
vt -238.711 0.393701
f 53/106/9 26/60/9 59/107/9

v 17344.1 2980.66 -9424.19
vt -799.408 0.393701
f 60/108/9 53/106/9 59/107/9

vt -493.243 291.986
f 53/106/9 60/108/9 52/109/9

v 7534.36 7174.69 -8230.47
vt -493.085 291.592
f 52/109/9 60/108/9 61/110/9

v 5866.03 7174.69 -6562.14
vt -400.197 291.592
f 52/109/9 61/110/9 62/111/9

vt -307.151 291.986
f 52/109/9 62/111/9 34/112/9

v 4197.71 7174.69 -4893.82
vt -307.308 291.592
f 63/113/9 34/112/9 62/111/9

v 2997.44 2993.76 4895.52
vt -1.37057 1.3029
f 63/113/9 64/114/9 34/112/9

v 3006.53 2989.65 4894.87
vt -1.64182 1.01755
f 65/115/9 64/114/9 63/113/9

f 65/115/9 27/61/9 64/114/9

v 3004.31 2981.83 4913.14
vt -1.07113 0.475043
f 66/116/9 27/61/9 65/115/9

f 26/60/9 27/61/9 66/116/9

v 2991.34 2986.77 4891.79
vt 0.809005 1.754
vt 0.425395 1.84256
f 27/64/10 67/117/10 64/118/10

v 2989.12 2978.95 4910.06
vt 0.631876 0.986776
f 27/64/10 68/119/10 67/117/10

f 27/64/10 28/63/10 68/119/10

v 4182.07 7170.26 -4893.28
vt 95.6463 412.534
f 64/118/10 67/117/10 69/120/10

vt 95.3332 412.927
f 64/118/10 69/120/10 34/121/10

f 34/121/10 69/120/10 32/69/10

f 34/121/10 32/69/10 33/70/10

v 5860.21 7180.36 -6567.97
vt -400.197 291.986
f 52/109/9 34/112/9 70/122/9

v 4190.44 7174.42 -4909.58
vt -307.545 95.7269
f 34/71/1 71/123/1 70/10/1

v 3778.64 6745.06 -5321.38
vt -307.545 124.213
f 71/123/1 34/71/1 72/124/1

f 72/124/1 34/71/1 35/73/1

v 5854.51 7174.42 -6573.66
vt -400.197 95.7269
f 70/10/1 71/123/1 73/125/1

v 7518.59 7174.42 -8237.74
vt -492.849 95.7269
f 70/10/1 73/125/1 74/126/1

vt -493.243 95.3332
f 70/10/1 74/126/1 52/127/1

f 52/127/1 74/126/1 39/1/1

v 7106.79 6745.06 -8649.53
vt -492.849 124.213
f 75/128/1 39/1/1 74/126/1

v 6695 6315.7 -9061.33
vt -492.849 152.698
f 76/129/1 39/1/1 75/128/1

v 5866.49 6315.7 -8232.83
vt -446.72 152.698
f 77/130/1 39/1/1 76/129/1

vt -446.72 153.092
f 77/130/1 38/131/1 39/1/1

v 5307.88 6315.7 -7674.21
vt -415.617 152.698
f 78/132/1 38/131/1 77/130/1

vt -415.617 153.092
f 78/132/1 37/133/1 38/131/1

v 5030.92 6315.7 -7397.25
vt -400.197 152.698
f 79/134/1 37/133/1 78/132/1

f 79/134/1 36/74/1 37/133/1

f 35/73/1 36/74/1 79/134/1

vt -493.243 124.213
f 52/127/1 39/1/1 49/135/1

v 7867.62 2980.66 52.2439
vt -271.782 0.393701
f 60/108/9 59/107/9 80/136/9

v 13774.9 -763.547 -13014.6
vt 800 248.031
f 43/102/5 81/137/5 56/100/5

v -586.447 -763.547 1346.72
vt 0.393701 248.031
f 43/102/5 82/138/5 81/137/5

f 82/138/5 43/102/5 23/55/5

f 23/55/5 22/54/5 82/138/5

v 6695.66 6300.22 -9069.16
vt 493.085 210.481
vt 556.182 151.043
f 83/139/11 47/140/11 39/79/11

v 8143.79 4852.22 -9877.78
vt 555.911 150.758
f 84/141/11 47/140/11 83/139/11

f 84/141/11 44/85/11 47/140/11

v 8926.48 4069.6 -10314.8
vt 589.867 118.479
f 85/142/11 44/85/11 84/141/11

f 42/83/11 44/85/11 85/142/11

v 5862.91 6300.22 -8236.41
vt 446.72 210.481
f 83/139/11 39/79/11 86/143/11

v 5304.29 6300.22 -7677.8
vt 415.617 210.481
f 86/143/11 39/79/11 87/144/11

v 5027.33 6300.22 -7400.84
vt 400.197 210.481
f 87/144/11 39/79/11 88/145/11

f 88/145/11 39/79/11 40/80/11

g Mesh3 Group3 Model

usemtl vermelho
v 4554.56 8441.12 -7873.61
vt -93.0458 69.0503
vn -0.674958 -0.298101 -0.674958
v 3364.34 6309.77 -5742.06
vt -0.571419 -18.8582
v 3354.08 6309.77 -5731.8
vt -1.21581e-13 -18.8582
v 4551.65 8454.29 -7876.52
vt -93.0458 69.5935
v 6696.38 6309.77 -9074.1
vt -186.092 -18.8582
v 6686.11 6309.77 -9063.83
vt -185.52 -18.8582
f 89/146/13 90/147/13 91/148/13 92/149/13 93/150/13 94/151/13 

vt -57.7589 3.78586e-13
vn -0.784724 0.59871 0.16048
v 3359.92 6315.86 -5725.95
vt -57.3548 4.62277e-13
v 4540.74 8430.38 -7840.67
vt -28.8794 123.339
v 4183.22 7174.27 -4902.66
vt -0.404057 -6.15577e-13
v 4189.06 7180.36 -4896.82
vt 1.7053e-13 4.14242e-13
vt -28.8794 125.089
f 91/152/14 95/153/14 96/154/14 97/155/14 98/156/14 92/157/14 

vt 4.54747e-13 5.17785e-14
vn 0.400953 0.823695 0.400953
v 4199.32 7180.36 -4907.08
vt 0.571419 -1.83602e-14
v 4559.69 8446.47 -7868.48
vt 93.0458 87.9085
v 7521.09 7180.36 -8228.85
vt 185.52 -2.61609e-13
v 7531.36 7180.36 -8239.12
vt 186.092 -6.50561e-14
vt 93.0458 88.4517
f 98/158/15 99/159/15 100/160/15 101/161/15 102/162/15 92/163/15 

v 4587.5 8430.38 -7887.43
vt 28.8794 -15.0833
vn 0.16048 0.59871 -0.784724
v 6702.22 6315.86 -9068.25
vt 57.3548 -138.422
vt 57.7589 -138.422
vt 28.8794 -13.3332
vt -2.76267e-12 -138.422
v 7525.51 7174.27 -8244.96
vt 0.404057 -138.422
f 103/164/16 104/165/16 93/166/16 92/167/16 102/168/16 105/169/16 

g Mesh4 Group5 Model

usemtl Branco
v 5444.1 6739.13 -6998.22
vt -25.9105 19.7113
v 5429.95 6739.13 -6984.08
vt -25.1231 19.7113
v 5441.34 6751 -6972.69
vt -25.1231 20.4987
v 5455.48 6751 -6986.84
vt -25.9105 20.4987
f 106/170/5 107/171/5 108/172/5 109/173/5 

vt -25.1231 69.0719
vt -25.9105 69.0719
v 6335.16 5029.89 -6107.15
vt -25.9105 -14.5324
v 10790.5 -3516.27 -1651.83
vt -25.9105 -432.554
v 10776.3 -3516.27 -1637.69
vt -25.1231 -432.554
v 6321.02 5029.89 -6093.01
vt -25.1231 -14.5324
f 107/174/4 106/175/4 110/176/4 111/177/4 112/178/4 113/179/4 

vt 25.1231 67.2926
vn 0.707107 0 -0.707107
vt 24.4893 67.7599
v 6346.54 5041.76 -6095.77
vt -25.1231 0.467259
v 10801.9 -3504.4 -1640.45
vt -273.185 -335.996
vt -272.551 -336.463
vt -24.4893 2.84217e-14
f 106/180/17 109/181/17 114/182/17 115/183/17 111/184/17 110/185/17 

vt 25.9105 69.0719
vt 25.1231 69.0719
v 6332.4 5041.76 -6081.63
vt 25.1231 -14.5324
v 10787.7 -3504.4 -1626.31
vt 25.1231 -432.554
vt 25.9105 -432.554
vt 25.9105 -14.5324
f 109/186/6 108/187/6 116/188/6 117/189/6 115/190/6 114/191/6 

vt -24.4893 67.7599
vn -0.707107 5.01965e-12 0.707107
vt -25.1231 67.2926
vt 24.4893 1.26109e-10
vt 272.551 -336.463
vt 273.185 -335.996
vt 25.1231 0.467259
f 108/192/18 107/193/18 113/194/18 112/195/18 117/196/18 116/197/18 

vt 25.1231 19.7113
vt 25.9105 19.7113
vt 25.9105 20.4987
vt 25.1231 20.4987
f 112/198/1 111/199/1 115/200/1 117/201/1 

