# Alias OBJ Model File
# Exported from SketchUp, (c) 2000-2012 Trimble Navigation Limited
# File units = millimeters

mtllib gizmo.mtl

g Mesh1 Group1 Model

usemtl verde
v 5858.7 0 -6290.42
vt 0.355922 0
vn 0.985486 0 0.169757
v 5858.77 0 -6292.12
vt 0.422808 0
vn 0.999213 0 0.0396733
v 5858.77 6000 -6292.12
vt 0.422808 236.22
v 5858.7 6000 -6290.42
vt 0.355922 236.22
f 1/1/1 2/2/2 3/3/2 4/4/1 

v 5858.8 0 -6293.03
vt 0.458698 0
vn 0.995843 0 -0.0910896
v 5858.8 6000 -6293.03
vt 0.458698 236.22
f 2/2/2 5/5/3 6/6/3 3/3/2 

vt 0.244675 0
v 5858.23 0 -6295.58
vt 0.347451 0
vn 0.938334 0 -0.345729
v 5858.23 6000 -6295.58
vt 0.347451 236.22
vt 0.244675 236.22
f 5/7/3 7/8/4 8/9/4 6/10/3 

vt 0.113252 0
v 5857.01 0 -6297.89
vt 0.216028 0
vn 0.81688 0 -0.576807
v 5857.01 6000 -6297.89
vt 0.216028 236.22
vt 0.113252 236.22
f 7/11/4 9/12/5 10/13/5 8/14/4 

vt -0.0293909 0
v 5855.24 0 -6299.81
vt 0.0733856 0
vn 0.639757 0 -0.768577
v 5855.24 6000 -6299.81
vt 0.0733856 236.22
vt -0.0293909 236.22
f 9/15/5 11/16/6 12/17/6 10/18/5 

vt -0.173533 0
v 5853.04 0 -6301.2
vt -0.0707564 0
vn 0.419035 0 -0.90797
v 5853.04 6000 -6301.2
vt -0.0707564 236.22
vt -0.173533 236.22
f 11/19/6 13/20/7 14/21/7 12/22/6 

vt -0.309351 0
v 5850.54 0 -6301.97
vt -0.206574 0
vn 0.169757 0 -0.985486
v 5850.54 6000 -6301.97
vt -0.206574 236.22
vt -0.309351 236.22
f 13/23/7 15/24/8 16/25/8 14/26/7 

vt -0.427589 0
v 5848.85 0 -6302.04
vt -0.360703 0
vn 0.0396733 0 -0.999213
v 5848.85 6000 -6302.04
vt -0.360703 236.22
vt -0.427589 236.22
f 15/27/8 17/28/9 18/29/9 16/30/8 

v 5847.93 0 -6302.08
vt -0.324813 0
vn -0.0910896 0 -0.995843
v 5847.93 6000 -6302.08
vt -0.324813 236.22
f 17/28/9 19/31/10 20/32/10 18/29/9 

vt -0.52019 0
v 5845.39 0 -6301.5
vt -0.417413 0
vn -0.345729 0 -0.938334
v 5845.39 6000 -6301.5
vt -0.417413 236.22
vt -0.52019 236.22
f 19/33/10 21/34/11 22/35/11 20/36/10 

vt -0.580843 0
v 5843.08 0 -6300.29
vt -0.478066 0
vn -0.576807 0 -0.81688
v 5843.08 6000 -6300.29
vt -0.478066 236.22
vt -0.580843 236.22
f 21/37/11 23/38/12 24/39/12 22/40/11 

vt -0.605414 0
v 5841.16 0 -6298.52
vt -0.502638 0
vn -0.768577 0 -0.639757
v 5841.16 6000 -6298.52
vt -0.502638 236.22
vt -0.605414 236.22
f 23/41/12 25/42/13 26/43/13 24/44/12 

vt -0.592229 0
v 5839.77 0 -6296.31
vt -0.489453 0
vn -0.90797 0 -0.419035
v 5839.77 6000 -6296.31
vt -0.489453 236.22
vt -0.592229 236.22
f 25/45/13 27/46/14 28/47/14 26/48/13 

vt -0.542187 0
v 5838.99 0 -6293.82
vt -0.439411 0
vn -0.985486 0 -0.169757
v 5838.99 6000 -6293.82
vt -0.439411 236.22
vt -0.542187 236.22
f 27/49/14 29/50/15 30/51/15 28/52/14 

vt -0.458698 0
v 5838.92 0 -6292.12
vt -0.391812 0
vn -0.999213 0 -0.0396733
v 5838.92 6000 -6292.12
vt -0.391812 236.22
vt -0.458698 236.22
f 29/53/15 31/54/16 32/55/16 30/56/15 

v 5838.89 0 -6291.21
vt -0.355922 0
vn -0.995843 0 0.0910896
v 5838.89 6000 -6291.21
vt -0.355922 236.22
f 31/54/16 33/57/17 34/58/17 32/55/16 

vt -0.347451 0
v 5839.46 0 -6288.66
vt -0.244675 0
vn -0.938334 0 0.345729
v 5839.46 6000 -6288.66
vt -0.244675 236.22
vt -0.347451 236.22
f 33/59/17 35/60/18 36/61/18 34/62/17 

vt -0.216028 0
v 5840.68 0 -6286.35
vt -0.113252 0
vn -0.81688 0 0.576807
v 5840.68 6000 -6286.35
vt -0.113252 236.22
vt -0.216028 236.22
f 35/63/18 37/64/19 38/65/19 36/66/18 

vt -0.0733856 0
v 5842.45 0 -6284.43
vt 0.0293909 0
vn -0.639757 0 0.768577
v 5842.45 6000 -6284.43
vt 0.0293909 236.22
vt -0.0733856 236.22
f 37/67/19 39/68/20 40/69/20 38/70/19 

vt 0.0707564 0
v 5844.66 0 -6283.04
vt 0.173533 0
vn -0.419035 0 0.90797
v 5844.66 6000 -6283.04
vt 0.173533 236.22
vt 0.0707564 236.22
f 39/71/20 41/72/21 42/73/21 40/74/20 

vt 0.206574 0
v 5847.15 0 -6282.27
vt 0.309351 0
vn -0.169757 0 0.985486
v 5847.15 6000 -6282.27
vt 0.309351 236.22
vt 0.206574 236.22
f 41/75/21 43/76/22 44/77/22 42/78/21 

vt 0.324813 0
v 5848.85 0 -6282.2
vt 0.391699 0
vn -0.0396733 0 0.999213
v 5848.85 6000 -6282.2
vt 0.391699 236.22
vt 0.324813 236.22
f 43/79/22 45/80/23 46/81/23 44/82/22 

v 5849.76 0 -6282.16
vt 0.427589 0
vn 0.0910896 0 0.995843
v 5849.76 6000 -6282.16
vt 0.427589 236.22
f 45/80/23 47/83/24 48/84/24 46/81/23 

vt 0.417413 0
v 5852.3 0 -6282.74
vt 0.52019 0
vn 0.345729 0 0.938334
v 5852.3 6000 -6282.74
vt 0.52019 236.22
vt 0.417413 236.22
f 47/85/24 49/86/25 50/87/25 48/88/24 

vt 0.478066 0
v 5854.61 0 -6283.95
vt 0.580843 0
vn 0.576807 0 0.81688
v 5854.61 6000 -6283.95
vt 0.580843 236.22
vt 0.478066 236.22
f 49/89/25 51/90/26 52/91/26 50/92/25 

vt 0.502638 0
v 5856.53 0 -6285.72
vt 0.605414 0
vn 0.768577 0 0.639757
v 5856.53 6000 -6285.72
vt 0.605414 236.22
vt 0.502638 236.22
f 51/93/26 53/94/27 54/95/27 52/96/26 

vt 0.489453 0
v 5857.93 0 -6287.93
vt 0.592229 0
vn 0.90797 0 0.419035
v 5857.93 6000 -6287.93
vt 0.592229 236.22
vt 0.489453 236.22
f 53/97/27 55/98/28 56/99/28 54/100/27 

vt 0.439411 0
vt 0.542187 0
vt 0.542187 236.22
vt 0.439411 236.22
f 55/101/28 1/102/1 4/103/1 56/104/28 

vt 0.392064 0.00142389
vn 0 1 -0
vt 0.427926 0
vt 0.528178 0.022641
vt 0.619154 0.0704576
vt 0.694653 0.140191
vt 0.749533 0.227089
vt 0.780051 0.32523
vt 0.782704 0.392064
vt 0.784128 0.427926
vt 0.761487 0.528178
vt 0.71367 0.619154
vt 0.643937 0.694653
vt 0.557039 0.749533
vt 0.458898 0.780051
vt 0.392064 0.782704
vt 0.356202 0.784128
vt 0.25595 0.761487
vt 0.164975 0.71367
vt 0.0894746 0.643937
vt 0.0345956 0.557039
vt 0.00407748 0.458898
vt 0.00142389 0.392064
vt 0 0.356202
vt 0.022641 0.25595
vt 0.0704576 0.164975
vt 0.140191 0.0894746
vt 0.227089 0.0345956
vt 0.32523 0.00407748
f 46/105/29 48/106/29 50/107/29 52/108/29 54/109/29 56/110/29 4/111/29 3/112/29 6/113/29 8/114/29 10/115/29 12/116/29 14/117/29 16/118/29 18/119/29 20/120/29 22/121/29 24/122/29 26/123/29 28/124/29 30/125/29 32/126/29 34/127/29 36/128/29 38/129/29 40/130/29 42/131/29 44/132/29 

g Mesh2 Group2 Model

usemtl azul
v 5858.7 8.22469 -6302.04
vn 0.985486 -0.169757 -1.88468e-17
v 5858.77 9.92226 -6302.04
vn 0.999213 -0.0396733 -4.40462e-18
v 5858.77 9.92226 -302.042
v 5858.7 8.22469 -302.042
f 57/1/30 58/2/31 59/3/31 60/4/30 

v 5858.8 10.8332 -6302.04
vn 0.995843 0.0910896 1.0113e-17
v 5858.8 10.8332 -302.042
f 58/2/31 61/5/32 62/6/32 59/3/31 

v 5858.23 13.3795 -6302.04
vn 0.938334 0.345729 3.83836e-17
v 5858.23 13.3795 -302.042
f 61/7/32 63/8/33 64/9/33 62/10/32 

v 5857.01 15.6903 -6302.04
vn 0.81688 0.576807 6.40385e-17
v 5857.01 15.6903 -302.042
f 63/11/33 65/12/34 66/13/34 64/14/33 

v 5855.24 17.608 -6302.04
vn 0.639757 0.768577 8.53292e-17
v 5855.24 17.608 -302.042
f 65/15/34 67/16/35 68/17/35 66/18/34 

v 5853.04 19.002 -6302.04
vn 0.419035 0.90797 1.00805e-16
v 5853.04 19.002 -302.042
f 67/19/35 69/20/36 70/21/36 68/22/35 

v 5850.54 19.7771 -6302.04
vn 0.169757 0.985486 1.09411e-16
v 5850.54 19.7771 -302.042
f 69/23/36 71/24/37 72/25/37 70/26/36 

v 5848.85 19.8445 -6302.04
vn 0.0396733 0.999213 1.10935e-16
v 5848.85 19.8445 -302.042
f 71/27/37 73/28/38 74/29/38 72/30/37 

v 5847.93 19.8807 -6302.04
vn -0.0910896 0.995843 1.10561e-16
v 5847.93 19.8807 -302.042
f 73/28/38 75/31/39 76/32/39 74/29/38 

v 5845.39 19.3056 -6302.04
vn -0.345729 0.938334 1.04176e-16
v 5845.39 19.3056 -302.042
f 75/33/39 77/34/40 78/35/40 76/36/39 

v 5843.08 18.0911 -6302.04
vn -0.576807 0.81688 9.06919e-17
v 5843.08 18.0911 -302.042
f 77/37/40 79/38/41 80/39/41 78/40/40 

v 5841.16 16.3198 -6302.04
vn -0.768577 0.639757 7.10273e-17
v 5841.16 16.3198 -302.042
f 79/41/41 81/42/42 82/43/42 80/44/41 

v 5839.77 14.1126 -6302.04
vn -0.90797 0.419035 4.65223e-17
v 5839.77 14.1126 -302.042
f 81/45/42 83/46/43 84/47/43 82/48/42 

v 5838.99 11.6198 -6302.04
vn -0.985486 0.169757 1.88468e-17
v 5838.99 11.6198 -302.042
f 83/49/43 85/50/44 86/51/44 84/52/43 

v 5838.92 9.92226 -6302.04
vn -0.999213 0.0396733 4.40462e-18
v 5838.92 9.92226 -302.042
f 85/53/44 87/54/45 88/55/45 86/56/44 

v 5838.89 9.01136 -6302.04
vn -0.995843 -0.0910896 -1.0113e-17
v 5838.89 9.01136 -302.042
f 87/54/45 89/57/46 90/58/46 88/55/45 

v 5839.46 6.46497 -6302.04
vn -0.938334 -0.345729 -3.83836e-17
v 5839.46 6.46497 -302.042
f 89/59/46 91/60/47 92/61/47 90/62/46 

v 5840.68 4.15419 -6302.04
vn -0.81688 -0.576807 -6.40385e-17
v 5840.68 4.15419 -302.042
f 91/63/47 93/64/48 94/65/48 92/66/47 

v 5842.45 2.23649 -6302.04
vn -0.639757 -0.768577 -8.53292e-17
v 5842.45 2.23649 -302.042
f 93/67/48 95/68/49 96/69/49 94/70/48 

v 5844.66 0.842562 -6302.04
vn -0.419035 -0.90797 -1.00805e-16
v 5844.66 0.842562 -302.042
f 95/71/49 97/72/50 98/73/50 96/74/49 

v 5847.15 0.0674013 -6302.04
vn -0.169757 -0.985486 -1.09411e-16
v 5847.15 0.0674013 -302.042
f 97/75/50 99/76/51 100/77/51 98/78/50 

v 5848.85 -1.41553e-15 -6302.04
vn -0.0396733 -0.999213 -1.10935e-16
v 5848.85 -6.67549e-13 -302.042
f 99/79/51 101/80/52 102/81/52 100/82/51 

v 5849.76 -0.0361667 -6302.04
vn 0.0910896 -0.995843 -1.10561e-16
v 5849.76 -0.0361667 -302.042
f 101/80/52 103/83/53 104/84/53 102/81/52 

v 5852.3 0.538916 -6302.04
vn 0.345729 -0.938334 -1.04176e-16
v 5852.3 0.538916 -302.042
f 103/85/53 105/86/54 106/87/54 104/88/53 

v 5854.61 1.75346 -6302.04
vn 0.576807 -0.81688 -9.06919e-17
v 5854.61 1.75346 -302.042
f 105/89/54 107/90/55 108/91/55 106/92/54 

v 5856.53 3.52469 -6302.04
vn 0.768577 -0.639757 -7.10273e-17
v 5856.53 3.52469 -302.042
f 107/93/55 109/94/56 110/95/56 108/96/55 

v 5857.93 5.73191 -6302.04
vn 0.90797 -0.419035 -4.65223e-17
v 5857.93 5.73191 -302.042
f 109/97/56 111/98/57 112/99/57 110/100/56 

f 111/101/57 57/102/30 60/103/30 112/104/57 

vn 0 -1.11022e-16 1
f 102/105/58 104/106/58 106/107/58 108/108/58 110/109/58 112/110/58 60/111/58 59/112/58 62/113/58 64/114/58 66/115/58 68/116/58 70/117/58 72/118/58 74/119/58 76/120/58 78/121/58 80/122/58 82/123/58 84/124/58 86/125/58 88/126/58 90/127/58 92/128/58 94/129/58 96/130/58 98/131/58 100/132/58 

g Mesh3 Group3 Model

usemtl vermelho
v 5838.92 0.103568 -6289.51
vn -2.59851e-16 -0.985486 0.169757
v 5838.92 0.0361667 -6291.21
vn -2.6347e-16 -0.999213 0.0396733
v 11838.9 0.0361667 -6291.21
v 11838.9 0.103568 -6289.51
f 113/1/59 114/2/60 115/3/60 116/4/59 

vn -2.62582e-16 -0.995843 -0.0910896
v 11838.9 -1.58096e-12 -6292.12
f 114/2/60 31/5/61 117/6/61 115/3/60 

v 5838.92 0.575082 -6294.67
vn -2.47418e-16 -0.938334 -0.345729
v 11838.9 0.575082 -6294.67
f 31/7/61 118/8/62 119/9/62 117/10/61 

v 5838.92 1.78962 -6296.98
vn -2.15393e-16 -0.81688 -0.576807
v 11838.9 1.78962 -6296.98
f 118/11/62 120/12/63 121/13/63 119/14/62 

v 5838.92 3.56086 -6298.89
vn -1.6869e-16 -0.639757 -0.768577
v 11838.9 3.56086 -6298.89
f 120/15/63 122/16/64 123/17/64 121/18/63 

v 5838.92 5.76807 -6300.29
vn -1.1049e-16 -0.419035 -0.90797
v 11838.9 5.76807 -6300.29
f 122/19/64 124/20/65 125/21/65 123/22/64 

v 5838.92 8.26085 -6301.06
vn -4.47613e-17 -0.169757 -0.985486
v 11838.9 8.26085 -6301.06
f 124/23/65 126/24/66 127/25/66 125/26/65 

v 5838.92 9.95843 -6301.13
vn -1.0461e-17 -0.0396733 -0.999213
v 11838.9 9.95843 -6301.13
f 126/27/66 128/28/67 129/29/67 127/30/66 

v 5838.92 10.8693 -6301.17
vn 2.40183e-17 0.0910896 -0.995843
v 11838.9 10.8693 -6301.17
f 128/28/67 130/31/68 131/32/68 129/29/67 

v 5838.92 13.4157 -6300.59
vn 9.11611e-17 0.345729 -0.938334
v 11838.9 13.4157 -6300.59
f 130/33/68 132/34/69 133/35/69 131/36/68 

v 5838.92 15.7265 -6299.38
vn 1.52091e-16 0.576807 -0.81688
v 11838.9 15.7265 -6299.38
f 132/37/69 134/38/70 135/39/70 133/40/69 

v 5838.92 17.6442 -6297.61
vn 2.02657e-16 0.768577 -0.639757
v 11838.9 17.6442 -6297.61
f 134/41/70 136/42/71 137/43/71 135/44/70 

v 5838.92 19.0381 -6295.4
vn 2.39412e-16 0.90797 -0.419035
v 11838.9 19.0381 -6295.4
f 136/45/71 138/46/72 139/47/72 137/48/71 

v 5838.92 19.8133 -6292.91
vn 2.59851e-16 0.985486 -0.169757
v 11838.9 19.8133 -6292.91
f 138/49/72 140/50/73 141/51/73 139/52/72 

v 5838.92 19.8807 -6291.21
vn 2.6347e-16 0.999213 -0.0396733
v 11838.9 19.8807 -6291.21
f 140/53/73 142/54/74 143/55/74 141/56/73 

v 5838.92 19.9169 -6290.3
vn 2.62582e-16 0.995843 0.0910896
v 11838.9 19.9169 -6290.3
f 142/54/74 144/57/75 145/58/75 143/55/74 

v 5838.92 19.3418 -6287.75
vn 2.47418e-16 0.938334 0.345729
v 11838.9 19.3418 -6287.75
f 144/59/75 146/60/76 147/61/76 145/62/75 

v 5838.92 18.1272 -6285.44
vn 2.15393e-16 0.81688 0.576807
v 11838.9 18.1272 -6285.44
f 146/63/76 148/64/77 149/65/77 147/66/76 

v 5838.92 16.356 -6283.52
vn 1.6869e-16 0.639757 0.768577
v 11838.9 16.356 -6283.52
f 148/67/77 150/68/78 151/69/78 149/70/77 

v 5838.92 14.1488 -6282.13
vn 1.1049e-16 0.419035 0.90797
v 11838.9 14.1488 -6282.13
f 150/71/78 152/72/79 153/73/79 151/74/78 

v 5838.92 11.656 -6281.35
vn 4.47613e-17 0.169757 0.985486
v 11838.9 11.656 -6281.35
f 152/75/79 154/76/80 155/77/80 153/78/79 

v 5838.92 9.95843 -6281.29
vn 1.0461e-17 0.0396733 0.999213
v 11838.9 9.95843 -6281.29
f 154/79/80 156/80/81 157/81/81 155/82/80 

v 5838.92 9.04753 -6281.25
vn -2.40183e-17 -0.0910896 0.995843
v 11838.9 9.04753 -6281.25
f 156/80/81 158/83/82 159/84/82 157/81/81 

v 5838.92 6.50114 -6281.83
vn -9.11611e-17 -0.345729 0.938334
v 11838.9 6.50114 -6281.83
f 158/85/82 160/86/83 161/87/83 159/88/82 

v 5838.92 4.19035 -6283.04
vn -1.52091e-16 -0.576807 0.81688
v 11838.9 4.19035 -6283.04
f 160/89/83 162/90/84 163/91/84 161/92/83 

v 5838.92 2.27266 -6284.81
vn -2.02657e-16 -0.768577 0.639757
v 11838.9 2.27266 -6284.81
f 162/93/84 164/94/85 165/95/85 163/96/84 

v 5838.92 0.878728 -6287.02
vn -2.39412e-16 -0.90797 0.419035
v 11838.9 0.878728 -6287.02
f 164/97/85 166/98/86 167/99/86 165/100/85 

f 166/101/86 113/102/59 116/103/59 167/104/86 

vn 1 -2.63678e-16 -0
f 157/105/87 159/106/87 161/107/87 163/108/87 165/109/87 167/110/87 116/111/87 115/112/87 117/113/87 119/114/87 121/115/87 123/116/87 125/117/87 127/118/87 129/119/87 131/120/87 133/121/87 135/122/87 137/123/87 139/124/87 141/125/87 143/126/87 145/127/87 147/128/87 149/129/87 151/130/87 153/131/87 155/132/87 

